<svg width="222" height="257" viewBox="0 0 222 257" fill="none" xmlns="http://www.w3.org/2000/svg">
<path d="M0.800781 207.32C70.6908 215.86 172.801 215.05 221.031 207.32L110.911 0L0.800781 207.32Z" fill="#A74D4A"/>
<path d="M110.91 0V179.09L221.03 207.32L110.91 0Z" fill="#9B3737"/>
<path d="M110.891 256.04L0.800781 207.37L110.941 179.09L221.031 207.32L110.891 256.04Z" fill="black"/>
<path d="M112.33 158.16C128.264 158.16 141.18 145.243 141.18 129.31C141.18 113.377 128.264 100.46 112.33 100.46C96.397 100.46 83.4805 113.377 83.4805 129.31C83.4805 145.243 96.397 158.16 112.33 158.16Z" fill="#F6F4EF"/>
<path d="M59.5508 233.34L94.9708 140.85H129.881L164.751 232.22L110.891 256.04L59.5508 233.34Z" fill="#F6F4EF"/>
<path d="M133.111 149.32C133.111 149.32 116.371 159.76 91.6211 149.44C91.6211 149.44 100.121 168.71 136.201 157.44L133.111 149.32Z" fill="black"/>
<path d="M103.5 111C105.433 111 107 109.433 107 107.5C107 105.567 105.433 104 103.5 104C101.567 104 100 105.567 100 107.5C100 109.433 101.567 111 103.5 111Z" fill="black"/>
<path d="M118.291 111C120.224 111 121.791 109.433 121.791 107.5C121.791 105.567 120.224 104 118.291 104C116.358 104 114.791 105.567 114.791 107.5C114.791 109.433 116.358 111 118.291 111Z" fill="black"/>
<path d="M111.24 120.88C113.173 120.88 114.74 119.313 114.74 117.38C114.74 115.447 113.173 113.88 111.24 113.88C109.307 113.88 107.74 115.447 107.74 117.38C107.74 119.313 109.307 120.88 111.24 120.88Z" fill="black"/>
</svg>
