<?xml version="1.0" standalone="no"?>
<!DOCTYPE svg PUBLIC "-//W3C//DTD SVG 20010904//EN"
 "http://www.w3.org/TR/2001/REC-SVG-20010904/DTD/svg10.dtd">
<svg version="1.0" xmlns="http://www.w3.org/2000/svg"
 width="1028.000000pt" height="1028.000000pt" viewBox="0 0 1028.000000 1028.000000"
 preserveAspectRatio="xMidYMid meet">
<metadata>
Created by potrace 1.14, written by Peter Selinger 2001-2017
</metadata>
<g transform="translate(0.000000,1028.000000) scale(0.100000,-0.100000)"
fill="#000000" stroke="none">
<path d="M4901 9837 c-283 -533 -953 -1794 -1494 -2812 -93 -176 -227 -428
-297 -560 -421 -793 -662 -1248 -813 -1530 -93 -176 -227 -428 -297 -560 -70
-132 -222 -418 -337 -635 -116 -217 -308 -579 -428 -805 -119 -225 -273 -513
-340 -640 -67 -126 -132 -248 -143 -271 l-21 -40 137 -61 c75 -34 277 -123
447 -198 542 -239 898 -397 1331 -589 232 -102 426 -186 431 -186 5 0 28 48
51 107 22 60 149 392 282 738 133 347 293 765 355 930 63 165 147 388 188 495
41 107 150 391 241 630 92 239 169 436 171 438 2 2 11 -10 20 -27 24 -47 141
-167 210 -216 118 -84 254 -141 422 -177 94 -20 135 -23 323 -23 188 1 234 4
370 28 85 15 218 45 295 66 95 26 142 34 146 27 6 -10 133 -343 639 -1671 348
-915 332 -874 448 -1175 37 -95 52 -124 64 -122 9 1 124 50 255 108 320 142
727 322 1263 559 579 256 714 316 719 321 3 3 -249 481 -679 1289 -116 218
-219 411 -550 1035 -171 321 -294 554 -547 1030 -72 135 -267 502 -433 815
-166 314 -357 674 -425 800 -67 127 -181 340 -252 475 -158 297 -431 812 -598
1125 -118 222 -186 351 -555 1045 -312 588 -361 680 -363 680 -1 0 -107 -199
-236 -443z m446 -3588 c367 -49 697 -281 868 -610 88 -170 126 -330 126 -529
0 -281 -79 -507 -251 -724 -49 -62 -70 -80 -126 -107 -243 -115 -584 -175
-868 -150 -234 20 -432 64 -643 143 -91 34 -134 71 -210 184 -165 244 -232
536 -188 827 66 440 391 809 821 932 154 44 314 56 471 34z"/>
<path d="M4766 6101 c-43 -29 -66 -70 -66 -121 0 -80 60 -140 140 -140 80 0
140 60 140 140 0 80 -60 140 -140 140 -27 0 -56 -8 -74 -19z"/>
<path d="M5337 6081 c-40 -38 -42 -42 -42 -100 0 -56 3 -63 37 -97 29 -30 45
-38 85 -41 89 -9 153 47 153 135 0 87 -56 142 -143 142 -42 0 -53 -5 -90 -39z"/>
<path d="M5090 5713 c-127 -66 -94 -252 47 -269 77 -10 153 60 153 140 0 105
-110 176 -200 129z"/>
</g>
</svg>
