<?xml version="1.0" standalone="no"?>
<!DOCTYPE svg PUBLIC "-//W3C//DTD SVG 20010904//EN"
 "http://www.w3.org/TR/2001/REC-SVG-20010904/DTD/svg10.dtd">
<svg version="1.0" xmlns="http://www.w3.org/2000/svg"
 width="746.000000pt" height="746.000000pt" viewBox="0 0 746.000000 746.000000"
 preserveAspectRatio="xMidYMid meet">
<metadata>
Created by potrace 1.14, written by Peter Selinger 2001-2017
</metadata>
<g transform="translate(0.000000,746.000000) scale(0.100000,-0.100000)"
fill="#000000" stroke="none">
<path d="M3137 7193 c-2 -1 -30 -3 -62 -5 -33 -1 -66 -6 -72 -11 -9 -6 -13 -5
-13 3 0 9 -4 9 -12 3 -7 -6 -23 -9 -35 -8 -13 1 -23 -1 -23 -4 0 -3 -10 -7
-22 -7 -55 -3 -98 -9 -98 -15 0 -3 -10 -5 -22 -4 -13 1 -27 -1 -33 -5 -5 -4
-28 -11 -50 -15 -45 -9 -54 -12 -57 -15 -5 -3 -43 -12 -60 -13 -10 -1 -18 -5
-18 -10 0 -4 -4 -5 -10 -2 -5 3 -10 1 -10 -5 0 -6 -4 -9 -8 -6 -4 2 -27 -4
-50 -14 -23 -11 -42 -17 -42 -14 0 3 -7 -2 -16 -10 -8 -9 -22 -16 -30 -16 -9
0 -12 -5 -8 -12 4 -7 3 -8 -5 -4 -6 4 -18 2 -26 -4 -8 -7 -15 -9 -15 -6 0 4
-7 0 -16 -8 -8 -9 -22 -16 -30 -16 -8 0 -14 -4 -14 -10 0 -5 -7 -10 -15 -10
-8 0 -15 -4 -15 -10 0 -5 -11 -12 -25 -16 -14 -3 -22 -10 -20 -15 3 -5 -6 -11
-20 -15 -14 -3 -25 -13 -25 -21 0 -8 -4 -12 -9 -8 -5 3 -17 -5 -25 -17 -9 -12
-16 -19 -16 -15 0 4 -9 -2 -20 -13 -11 -11 -20 -24 -20 -30 0 -5 -4 -10 -9
-10 -12 0 -28 -17 -61 -60 -14 -19 -32 -42 -42 -51 -9 -10 -14 -20 -11 -23 4
-3 1 -6 -6 -6 -7 0 -9 -4 -6 -10 3 -5 1 -10 -5 -10 -6 0 -8 -4 -5 -10 3 -5 2
-10 -3 -10 -9 0 -47 -70 -44 -82 1 -5 -3 -8 -8 -8 -5 0 -9 -3 -8 -7 1 -5 -4
-21 -11 -38 -7 -16 -15 -42 -18 -58 -3 -15 -10 -30 -14 -33 -5 -3 -9 -10 -9
-15 0 -6 6 -7 13 -3 8 6 8 3 -1 -9 -8 -9 -11 -21 -7 -27 3 -5 1 -10 -5 -10 -6
0 -8 -4 -5 -10 3 -5 1 -10 -6 -10 -8 0 -8 -4 1 -15 7 -9 8 -15 2 -15 -6 0 -9
-8 -7 -17 1 -10 -2 -23 -7 -30 -5 -6 -5 -14 0 -17 4 -2 7 -20 5 -38 -2 -18 -4
-39 -3 -45 2 -45 5 -63 10 -63 3 0 6 -11 6 -25 1 -16 -2 -23 -10 -19 -6 3 -4
0 4 -8 9 -7 16 -22 17 -33 1 -11 4 -30 8 -42 4 -12 6 -25 5 -29 -1 -4 3 -10
10 -14 6 -4 12 -17 13 -28 1 -12 5 -22 9 -22 4 0 8 -6 8 -14 0 -7 6 -19 14
-26 8 -6 12 -19 9 -27 -4 -10 -2 -14 4 -10 7 4 10 -87 10 -278 0 -160 -3 -282
-8 -279 -5 3 -9 0 -9 -7 0 -7 -3 -9 -6 -6 -4 3 -16 1 -28 -5 -11 -7 -24 -11
-28 -10 -5 1 -8 -2 -8 -8 0 -6 -3 -9 -7 -8 -11 3 -64 -33 -85 -57 -10 -11 -17
-17 -18 -12 0 11 -36 -27 -43 -47 -4 -10 -12 -14 -19 -10 -7 4 -10 4 -6 -1 4
-4 -2 -21 -13 -36 -11 -16 -17 -29 -12 -29 4 0 2 -4 -6 -9 -8 -5 -16 -17 -17
-26 -1 -9 -6 -24 -10 -33 -4 -9 -6 -25 -5 -34 1 -10 -2 -18 -7 -18 -6 0 -9 -8
-7 -17 1 -10 0 -22 -4 -28 -9 -16 -10 -35 -2 -35 4 0 8 -7 8 -15 0 -8 -3 -15
-7 -15 -10 0 -9 -39 1 -45 5 -4 6 -12 2 -18 -11 -17 -10 -31 2 -39 7 -6 7 -10
0 -15 -13 -10 -15 -63 -3 -63 5 0 6 -5 2 -12 -12 -19 -11 -78 1 -78 7 0 7 -3
0 -8 -13 -9 -15 -62 -3 -62 5 0 6 -6 1 -12 -11 -19 -10 -72 2 -80 6 -5 5 -8
-3 -8 -10 0 -10 -5 -2 -20 6 -11 7 -20 2 -20 -11 0 -13 -38 -1 -45 5 -4 6 -12
2 -18 -11 -17 -10 -31 2 -39 7 -5 7 -11 0 -15 -15 -11 -17 -33 -5 -47 5 -7 6
-16 2 -20 -10 -11 -9 -30 3 -38 7 -5 7 -11 0 -15 -15 -11 -17 -33 -5 -47 5 -7
6 -16 2 -20 -10 -11 -9 -30 3 -38 7 -5 7 -11 0 -15 -15 -11 -17 -33 -5 -47 5
-7 6 -16 2 -20 -10 -11 -9 -30 3 -38 7 -5 7 -11 0 -15 -15 -11 -17 -33 -5 -47
5 -7 6 -16 2 -20 -10 -11 -9 -30 3 -38 7 -5 7 -11 0 -15 -15 -11 -17 -33 -5
-47 5 -7 6 -16 2 -20 -10 -11 -9 -30 3 -38 7 -5 7 -11 0 -15 -15 -11 -17 -33
-5 -47 5 -7 6 -16 2 -20 -10 -11 -9 -30 3 -38 7 -5 7 -11 0 -15 -15 -11 -17
-33 -5 -47 5 -7 7 -16 3 -20 -12 -12 -12 -36 0 -36 8 0 7 -3 -2 -9 -9 -6 -10
-11 -2 -15 6 -4 8 -13 4 -19 -11 -17 -10 -31 2 -39 7 -5 7 -11 0 -15 -15 -11
-17 -33 -5 -47 5 -7 6 -16 2 -20 -10 -11 -9 -30 3 -38 7 -5 7 -11 0 -15 -15
-11 -17 -33 -5 -47 5 -7 7 -16 3 -20 -12 -12 -12 -36 0 -36 8 0 7 -3 -2 -9 -9
-6 -10 -10 -2 -16 8 -4 9 -11 2 -18 -14 -18 -14 -29 1 -38 8 -6 9 -12 3 -16
-15 -11 -17 -33 -5 -47 5 -7 6 -16 2 -20 -10 -11 -9 -30 3 -38 7 -5 7 -11 0
-15 -15 -11 -17 -33 -5 -47 5 -7 7 -16 3 -20 -12 -12 -12 -36 0 -36 8 0 7 -3
-2 -9 -9 -6 -10 -10 -2 -16 9 -5 9 -11 -1 -22 -15 -19 -15 -23 4 -34 8 -6 9
-12 3 -17 -15 -10 -17 -32 -5 -46 5 -7 6 -16 2 -20 -10 -11 -9 -30 3 -39 7 -4
7 -10 0 -15 -15 -10 -17 -32 -5 -46 5 -7 7 -16 3 -20 -12 -12 -12 -36 0 -36 8
0 8 -3 2 -8 -14 -10 -17 -32 -4 -32 5 0 7 -5 3 -12 -12 -19 -11 -78 1 -78 7 0
7 -3 0 -8 -13 -9 -15 -62 -3 -62 5 0 6 -6 1 -12 -11 -19 -10 -72 2 -80 6 -5 5
-8 -3 -8 -10 0 -10 -5 -2 -20 6 -11 7 -20 2 -20 -11 0 -13 -38 -1 -45 5 -4 6
-12 2 -18 -11 -17 -10 -31 2 -39 7 -5 7 -11 0 -15 -15 -11 -17 -33 -5 -47 5
-7 6 -16 2 -20 -10 -11 -9 -30 3 -38 7 -5 7 -11 0 -15 -15 -11 -17 -33 -5 -47
5 -7 6 -16 2 -20 -10 -11 -9 -30 3 -38 7 -5 7 -11 0 -15 -15 -11 -17 -33 -5
-47 5 -7 6 -16 2 -20 -10 -11 -9 -30 3 -38 7 -5 7 -11 0 -15 -15 -11 -17 -33
-5 -47 5 -7 6 -16 2 -20 -10 -11 -9 -30 3 -38 7 -6 7 -10 0 -15 -13 -10 -15
-63 -3 -63 5 0 6 -5 2 -12 -12 -19 -11 -78 1 -78 7 0 7 -3 0 -8 -13 -9 -15
-62 -3 -62 5 0 6 -5 2 -12 -12 -19 -11 -78 1 -78 7 0 7 -3 0 -8 -13 -9 -15
-62 -3 -62 5 0 6 -5 2 -12 -12 -19 -11 -78 1 -78 7 0 7 -3 0 -8 -13 -9 -15
-62 -3 -62 5 0 6 -6 1 -12 -11 -19 -10 -72 2 -80 6 -5 5 -8 -3 -8 -10 0 -10
-5 -2 -20 6 -11 7 -20 2 -20 -11 0 -13 -38 -1 -45 5 -4 5 -14 -1 -26 -8 -14
-7 -19 1 -19 8 0 9 -4 0 -13 -6 -8 -8 -17 -4 -20 5 -6 9 -28 15 -84 1 -7 5
-13 10 -13 5 0 6 -5 3 -10 -4 -6 -1 -17 5 -25 7 -8 9 -15 4 -15 -5 0 -4 -4 1
-8 12 -9 48 -72 41 -72 -6 0 80 -86 113 -112 12 -10 26 -18 31 -18 6 0 10 -5
10 -11 0 -5 5 -7 10 -4 6 3 10 1 10 -4 0 -6 3 -10 8 -10 18 3 32 -2 46 -17 12
-12 16 -12 16 -2 0 10 2 10 8 1 4 -7 24 -13 45 -15 20 -1 37 -5 37 -8 0 -11
1474 -4 1495 7 11 6 23 10 27 10 11 -3 58 65 53 74 -3 4 -1 11 5 14 8 5 8 11
0 20 -6 7 -13 23 -15 35 -6 33 -48 66 -77 61 -5 0 -8 2 -8 6 0 5 -327 7 -728
7 -529 -1 -731 1 -741 10 -12 9 -13 8 -6 -4 6 -12 5 -13 -6 -3 -7 7 -23 13
-36 13 -13 0 -23 3 -23 8 0 4 -14 16 -30 27 -16 11 -30 26 -30 33 0 6 -4 12
-8 12 -9 0 -39 62 -44 90 -2 8 -7 18 -13 22 -7 5 -7 8 0 8 11 0 13 70 2 87 -4
6 -1 13 5 16 10 3 10 7 -1 20 -11 14 -11 17 0 17 11 0 11 2 -1 10 -8 5 -10 10
-5 10 6 0 10 20 10 44 1 25 -2 43 -6 40 -4 -2 -4 9 1 26 5 17 5 30 0 30 -5 0
-7 6 -5 12 10 29 11 108 1 112 -6 2 -5 5 3 5 11 1 11 4 1 16 -10 12 -10 15 1
15 11 0 11 2 -1 10 -8 5 -10 10 -5 10 6 0 10 20 10 44 1 25 -2 43 -6 40 -4 -2
-4 9 1 26 5 17 5 30 0 30 -5 0 -7 6 -5 13 10 26 11 107 2 107 -5 0 -4 7 3 15
10 12 10 15 -1 15 -11 0 -11 2 1 10 13 9 13 10 0 10 -9 0 -11 3 -5 8 11 8 13
71 2 89 -4 6 -1 13 5 16 10 3 10 7 -1 20 -11 14 -11 17 0 17 11 0 11 2 -1 10
-8 5 -10 10 -5 10 6 0 10 20 10 44 1 25 -2 43 -6 40 -4 -2 -4 9 1 26 5 17 5
30 0 30 -5 0 -7 6 -5 12 10 27 11 108 2 108 -5 0 -4 7 3 15 10 12 10 15 -1 15
-11 0 -11 2 1 10 13 9 13 10 0 10 -9 0 -11 3 -5 8 11 8 13 71 2 89 -4 6 -1 13
5 16 10 3 10 7 -1 20 -11 14 -11 17 0 17 11 0 11 2 -1 10 -8 5 -10 10 -5 10 6
0 10 20 10 44 1 25 -2 43 -6 40 -4 -2 -4 9 1 26 5 17 5 30 0 30 -5 0 -7 6 -5
12 10 27 11 108 2 108 -5 0 -4 7 3 15 10 12 10 15 -1 15 -11 0 -11 2 1 10 13
9 13 10 0 10 -9 0 -11 3 -5 8 11 8 13 71 2 89 -4 6 -1 13 5 16 10 3 10 7 -1
20 -11 14 -11 17 0 17 11 0 11 2 -1 10 -8 5 -10 10 -5 10 6 0 10 20 10 44 1
25 -2 43 -6 40 -4 -2 -4 9 1 26 5 17 5 30 0 30 -5 0 -7 6 -5 13 10 26 11 107
2 107 -5 0 -4 7 3 15 10 12 10 15 -1 15 -11 0 -11 2 1 10 13 9 13 10 0 10 -9
0 -11 3 -5 8 12 8 13 72 1 90 -4 6 -2 12 3 12 13 0 10 22 -4 32 -6 5 -4 8 5 8
13 0 13 1 0 10 -8 5 -10 10 -5 10 11 0 13 70 2 87 -4 6 -1 13 5 16 10 3 10 7
-1 20 -11 14 -11 17 0 17 11 0 11 2 -1 10 -8 5 -10 10 -5 10 6 0 10 20 10 44
1 25 -2 43 -6 40 -4 -2 -4 9 1 26 5 17 5 30 0 30 -5 0 -7 6 -5 13 10 26 11
107 2 107 -5 0 -4 7 3 15 10 12 10 15 -1 15 -11 0 -11 2 1 10 13 9 13 10 0 10
-9 0 -11 3 -5 8 12 8 13 72 1 90 -4 6 -3 12 1 12 5 0 9 15 9 34 0 19 -3 33 -7
30 -4 -2 -4 9 1 26 5 19 5 30 -1 30 -6 0 -8 4 -5 8 8 14 15 102 7 98 -4 -3 -7
4 -7 15 0 10 3 19 6 19 3 0 5 29 5 64 0 35 -3 62 -7 60 -4 -2 -3 9 2 26 5 19
5 30 -1 30 -6 0 -8 4 -5 8 8 14 15 102 7 98 -4 -3 -7 4 -7 15 0 10 3 19 6 19
8 0 5 74 -4 88 -4 7 -2 12 6 12 9 0 9 3 -2 10 -8 5 -10 10 -5 10 6 0 10 20 10
44 1 25 -2 43 -6 40 -4 -2 -4 9 1 26 5 17 5 30 0 30 -5 0 -7 6 -5 13 10 26 11
107 2 107 -5 0 -4 7 3 15 10 12 10 15 -1 15 -11 0 -11 2 1 10 13 9 13 10 0 10
-9 0 -11 3 -5 8 12 8 13 72 1 90 -4 7 -2 12 4 12 7 0 9 7 6 16 -3 8 -1 25 5
36 9 16 8 19 -1 13 -7 -4 0 15 15 43 15 28 34 53 42 56 8 3 11 10 8 16 -3 5 1
10 9 10 9 0 16 4 16 8 0 8 53 33 85 39 49 9 1405 7 1405 -2 0 -7 3 -7 8 0 4 6
135 10 357 10 222 0 353 -4 357 -10 5 -7 8 -7 8 0 0 10 492 12 540 2 39 -8 60
-18 60 -29 0 -5 4 -7 9 -4 8 6 41 -22 71 -60 21 -26 50 -118 39 -122 -5 -2 -7
-8 -3 -13 10 -17 10 -109 -1 -109 -7 0 -7 -3 0 -8 6 -4 9 -18 7 -32 -3 -25 -3
-37 2 -117 1 -24 -2 -43 -7 -43 -4 0 -5 -5 -2 -10 11 -18 12 -110 0 -110 -6 0
-7 -3 0 -8 12 -8 14 -192 2 -192 -5 0 -5 -5 -2 -10 11 -18 12 -110 0 -110 -7
0 -7 -3 0 -8 6 -4 9 -18 7 -32 -3 -25 -3 -37 2 -117 1 -24 -2 -43 -7 -43 -4 0
-5 -5 -2 -10 11 -18 12 -110 0 -110 -6 0 -7 -3 0 -8 12 -8 14 -192 2 -192 -5
0 -5 -5 -2 -10 11 -18 12 -110 0 -110 -7 0 -7 -3 0 -8 6 -4 9 -18 8 -32 -2
-14 -3 -32 -3 -40 0 -68 -1 -126 -3 -263 -1 -97 2 -159 8 -161 6 -3 5 -5 -2
-5 -7 -1 -10 -7 -7 -15 10 -27 10 -116 -1 -116 -7 0 -7 -3 0 -8 6 -4 9 -18 7
-32 -3 -25 -3 -37 2 -117 1 -24 -2 -43 -7 -43 -4 0 -5 -5 -2 -10 11 -18 12
-110 0 -110 -6 0 -7 -3 0 -8 13 -9 14 -55 0 -64 -6 -5 -6 -8 0 -8 6 0 10 -33
10 -80 0 -47 -4 -80 -10 -80 -7 0 -7 -3 0 -8 6 -4 10 -14 10 -22 0 -8 -4 -18
-10 -22 -6 -5 -6 -8 1 -8 7 0 9 -11 6 -25 -3 -16 0 -25 9 -25 7 0 9 -3 6 -7
-4 -3 -2 -12 4 -20 6 -7 8 -13 5 -13 -14 0 20 -28 44 -36 40 -13 110 -11 110
3 0 7 7 13 15 13 8 0 15 6 15 14 0 8 5 16 11 18 6 2 11 24 12 48 1 25 7 48 12
52 6 5 5 8 -4 8 -10 0 -11 3 -2 13 6 8 8 17 4 21 -11 11 -10 46 1 46 6 0 4 5
-4 10 -13 9 -13 10 0 10 13 0 13 1 0 10 -12 8 -13 11 -1 19 7 5 9 11 4 14 -10
6 -9 59 1 75 3 6 0 13 -6 15 -10 4 -9 8 2 16 10 7 11 11 3 11 -7 0 -13 5 -13
11 0 5 5 7 12 3 7 -5 8 -3 3 6 -10 16 -11 70 -2 93 3 9 1 18 -6 21 -9 3 -8 8
3 15 10 7 11 11 3 11 -7 0 -13 5 -13 11 0 5 5 7 12 3 7 -5 8 -3 3 6 -10 16
-11 70 -2 93 3 9 1 18 -6 21 -9 3 -8 7 2 14 7 5 9 12 4 15 -9 6 -10 84 0 93 3
3 2 17 -3 30 -5 13 -6 24 -2 24 6 0 8 349 2 358 -5 7 -3 71 3 85 3 9 1 18 -6
21 -9 3 -8 8 3 15 10 7 11 11 3 11 -7 0 -13 5 -13 11 0 5 5 7 12 3 7 -5 8 -3
3 6 -10 16 -11 70 -2 93 3 9 1 18 -6 21 -9 3 -8 8 3 15 10 7 11 11 3 11 -7 0
-13 5 -13 11 0 5 5 7 12 3 7 -5 8 -3 3 6 -10 16 -11 70 -2 93 3 9 1 18 -6 21
-9 3 -8 8 3 15 10 7 11 11 3 11 -7 0 -13 5 -13 11 0 5 5 7 12 3 7 -5 8 -3 3 6
-10 16 -11 70 -2 93 3 9 1 18 -6 21 -9 3 -8 8 3 15 10 7 11 11 3 11 -7 0 -13
5 -13 11 0 5 5 7 12 3 7 -5 8 -3 3 6 -10 16 -11 70 -2 93 3 9 1 18 -6 21 -9 3
-8 8 3 15 10 7 11 11 3 11 -7 0 -13 5 -13 11 0 5 5 7 12 3 7 -5 8 -3 3 6 -10
16 -11 70 -2 93 3 9 1 18 -6 21 -9 3 -8 8 3 15 10 7 11 11 3 11 -7 0 -13 5
-13 11 0 5 5 7 12 3 7 -5 8 -3 3 6 -10 16 -11 70 -2 93 3 9 1 18 -6 21 -9 3
-8 8 3 15 10 7 11 11 3 11 -7 0 -13 5 -13 11 0 5 5 7 12 3 7 -5 8 -3 3 6 -10
16 -11 70 -2 93 3 9 1 18 -6 21 -9 3 -8 8 3 15 10 7 11 11 3 11 -7 0 -13 5
-13 11 0 5 5 7 12 3 7 -5 8 -3 3 6 -10 16 -11 70 -2 93 4 10 2 17 -5 17 -6 0
-5 6 3 17 10 11 10 14 2 9 -8 -4 -13 -1 -13 9 0 10 5 13 12 9 7 -5 8 -3 3 5
-10 17 -13 131 -3 125 4 -3 5 2 2 10 -3 9 -11 16 -16 16 -6 0 -6 6 1 14 8 10
9 16 1 21 -6 3 -8 10 -5 15 3 4 -4 29 -15 55 -11 26 -17 52 -13 57 3 7 1 8 -5
4 -8 -5 -12 0 -12 13 0 11 -9 25 -20 31 -11 6 -20 16 -20 22 0 16 -101 109
-111 102 -5 -3 -9 0 -9 6 0 11 -68 45 -82 42 -5 -1 -8 3 -8 9 0 5 -4 8 -8 5
-4 -2 -14 -1 -22 4 -16 10 -23 137 -8 146 5 3 5 11 1 17 -12 19 -10 371 2 379
6 5 6 8 -2 8 -7 0 -10 7 -7 15 4 8 10 12 15 9 5 -3 9 0 9 6 0 6 7 27 17 48 18
40 20 47 22 63 0 5 5 8 10 4 6 -3 8 4 6 15 -2 11 0 20 5 20 5 0 7 7 4 15 -4 8
-1 15 5 15 6 0 8 7 5 15 -4 8 -3 23 1 33 15 34 27 222 14 222 -3 0 -3 14 -1
31 3 20 1 29 -5 26 -6 -4 -9 5 -7 21 1 14 -2 32 -8 39 -7 9 -7 13 1 13 9 0 8
6 -1 23 -12 22 -18 42 -20 65 -1 6 -6 12 -11 12 -6 0 -7 3 -4 7 4 3 -1 15 -10
26 -13 15 -14 19 -3 13 13 -7 13 -6 0 6 -8 7 -16 20 -18 28 -4 24 -36 80 -45
80 -4 0 -6 4 -3 9 3 4 -3 16 -14 26 -11 10 -17 21 -15 25 3 4 -2 11 -11 14 -9
4 -14 9 -11 12 8 8 -16 33 -25 27 -5 -2 -8 1 -8 7 0 14 -91 105 -138 138 -19
14 -29 28 -26 35 4 7 4 9 -1 5 -4 -4 -14 -3 -22 3 -7 6 -13 8 -13 5 0 -4 -10
2 -22 13 -11 11 -25 18 -30 15 -4 -3 -8 2 -8 10 0 9 -9 16 -20 16 -11 0 -20 5
-20 10 0 6 -9 10 -20 10 -11 0 -20 5 -20 10 0 6 -9 10 -20 10 -11 0 -20 5 -20
10 0 6 -9 10 -20 10 -11 0 -20 5 -20 11 0 5 -4 7 -10 4 -5 -3 -10 -1 -10 4 0
6 -3 10 -7 9 -11 -3 -113 31 -144 47 -18 10 -29 11 -36 4 -8 -8 -13 -7 -18 2
-6 8 -4 10 5 4 9 -5 11 -4 6 4 -6 9 -11 9 -22 0 -10 -8 -14 -8 -14 0 0 6 -10
11 -23 11 -13 0 -29 6 -36 13 -11 10 -12 9 -6 -3 7 -12 6 -13 -6 -3 -9 7 -32
14 -52 15 -20 2 -37 6 -37 9 0 3 -12 4 -26 1 -20 -4 -25 -2 -19 8 6 9 3 10
-13 1 -13 -7 -23 -7 -27 -2 -3 6 -19 8 -35 6 -17 -2 -30 0 -30 4 0 4 -22 7
-50 7 -27 -1 -50 2 -50 6 0 11 -23 5 -32 -7 -5 -6 -8 -6 -8 2 0 12 -17 12 -36
0 -6 -3 -14 -3 -18 1 -7 6 -293 12 -299 5z m26 -243 c4 0 5 4 2 10 -4 7 2 7
19 0 14 -5 28 -6 30 -1 6 9 49 7 65 -4 6 -3 11 -2 11 2 0 5 29 8 65 8 36 0 65
-4 65 -8 0 -4 9 -3 19 3 14 7 22 7 26 0 5 -8 12 -7 23 2 13 11 14 11 8 0 -6
-10 -1 -13 20 -12 16 1 31 1 34 0 3 -1 29 -2 58 -3 28 0 52 -3 52 -6 0 -3 17
-7 38 -9 36 -2 77 -9 77 -12 0 -3 49 -10 68 -11 9 0 17 -4 17 -7 0 -4 15 -9
33 -10 17 -2 34 -7 35 -12 2 -6 8 -7 13 -4 6 3 16 0 24 -6 8 -7 15 -9 15 -5 0
4 11 0 25 -9 18 -12 25 -13 25 -4 1 8 5 7 14 -4 7 -10 16 -15 19 -11 4 3 7 1
7 -6 0 -7 5 -9 10 -6 6 3 10 2 10 -2 0 -5 10 -10 22 -10 13 -1 27 -8 33 -16 5
-8 16 -12 23 -10 6 3 12 0 12 -6 0 -6 7 -11 15 -11 8 0 15 -5 15 -11 0 -5 5
-7 10 -4 6 3 10 1 10 -5 0 -6 5 -8 10 -5 6 3 10 -1 10 -10 0 -9 4 -14 9 -11 9
6 54 -25 82 -56 9 -10 22 -18 28 -18 7 0 10 -4 6 -9 -3 -5 4 -12 15 -16 11 -3
20 -11 20 -16 0 -6 10 -21 23 -34 40 -44 52 -59 49 -68 -1 -4 5 -10 13 -13 8
-4 15 -15 15 -25 0 -10 5 -19 11 -19 5 0 7 -4 4 -10 -3 -5 -2 -10 3 -10 11 0
25 -35 25 -62 0 -10 4 -18 8 -18 5 0 9 -8 9 -18 0 -10 3 -22 7 -25 7 -8 15
-70 17 -124 0 -18 4 -33 8 -33 5 0 5 -8 0 -17 -4 -10 -7 -28 -6 -40 0 -13 -4
-23 -10 -23 -6 0 -4 -5 4 -10 8 -5 10 -10 4 -10 -6 0 -11 -6 -12 -12 -3 -42
-7 -58 -14 -58 -4 0 -5 -7 -2 -15 4 -8 1 -15 -6 -15 -6 0 -9 -4 -6 -8 2 -4 -4
-13 -15 -20 -15 -10 -19 -10 -19 0 0 9 -3 9 -11 1 -7 -7 -20 -8 -34 -3 -12 4
-28 5 -35 0 -7 -4 -25 -4 -41 0 -15 5 -30 6 -33 2 -9 -8 -56 -9 -56 0 0 4 -12
3 -27 -3 -19 -7 -29 -7 -31 0 -3 8 -10 8 -24 0 -16 -8 -19 -8 -13 1 6 9 3 10
-10 2 -11 -5 -30 -6 -46 -2 -15 5 -30 6 -33 2 -9 -8 -56 -9 -56 0 0 4 -12 3
-27 -3 -19 -7 -29 -7 -31 0 -3 8 -10 8 -24 0 -16 -8 -19 -8 -13 1 6 9 3 10
-10 2 -11 -5 -30 -6 -46 -2 -15 5 -30 6 -33 2 -9 -8 -56 -9 -56 0 0 4 -12 3
-27 -3 -19 -7 -29 -7 -31 0 -3 8 -10 8 -24 0 -16 -8 -19 -8 -13 1 6 9 3 10
-10 2 -11 -5 -30 -6 -46 -2 -15 5 -30 6 -33 2 -9 -8 -56 -9 -56 0 0 4 -12 3
-27 -3 -20 -7 -29 -7 -32 2 -2 8 -6 7 -12 -2 -6 -10 -9 -10 -9 -2 0 9 -7 10
-27 2 -19 -7 -29 -7 -31 0 -3 8 -10 8 -24 0 -16 -8 -19 -8 -13 1 6 9 3 10 -10
2 -11 -5 -30 -6 -46 -2 -15 5 -30 6 -33 2 -9 -8 -56 -9 -56 0 0 4 -12 3 -27
-3 -20 -7 -29 -7 -32 2 -2 8 -6 7 -12 -2 -6 -10 -9 -10 -9 -2 0 9 -7 10 -27 2
-19 -7 -29 -7 -31 0 -3 8 -10 8 -24 0 -16 -8 -19 -8 -13 1 6 9 3 10 -10 2 -11
-5 -30 -6 -46 -2 -15 5 -30 6 -33 2 -9 -8 -56 -9 -56 0 0 4 -12 3 -27 -3 -20
-7 -29 -7 -32 2 -2 8 -6 7 -12 -2 -6 -10 -9 -10 -9 -2 0 9 -7 10 -27 2 -19 -7
-29 -7 -31 0 -3 8 -10 8 -24 0 -16 -8 -19 -8 -13 1 6 9 3 10 -10 2 -11 -5 -30
-6 -46 -2 -15 5 -30 6 -33 2 -9 -8 -56 -9 -56 0 0 4 -12 3 -27 -3 -19 -7 -28
-6 -33 2 -5 7 -10 8 -14 1 -3 -6 -20 -7 -41 -2 -20 4 -38 4 -41 -1 -3 -5 -13
-5 -24 1 -10 6 -21 6 -24 1 -5 -8 -67 -6 -93 4 -7 2 -15 0 -18 -5 -4 -7 -13
-6 -25 0 -12 6 -21 7 -25 0 -3 -5 -15 -6 -29 0 -12 4 -28 5 -35 0 -7 -4 -28
-4 -47 0 -20 5 -32 4 -28 -1 8 -14 -49 2 -58 15 -4 6 -6 17 -3 24 2 6 0 12 -5
12 -6 0 -10 9 -10 19 0 11 -4 22 -8 25 -5 3 -8 21 -7 41 1 19 -2 38 -7 41 -5
3 -4 12 3 20 7 9 8 14 1 14 -6 0 -9 10 -6 23 2 12 5 43 5 69 1 26 5 46 9 43 4
-2 6 11 5 30 -1 20 3 31 8 28 6 -4 8 3 5 15 -5 16 -1 22 10 23 12 0 13 2 3 6
-8 3 -9 8 -3 12 5 3 12 15 14 26 1 11 7 23 12 27 5 3 11 15 12 25 2 9 8 19 13
21 6 2 11 10 11 18 0 8 5 14 12 14 6 0 9 3 6 6 -4 3 1 14 10 23 41 43 60 70
54 77 -4 4 -2 4 4 1 7 -4 22 7 35 23 13 16 30 30 37 30 6 0 12 7 12 16 0 8 4
13 9 10 5 -3 23 9 41 27 18 17 29 25 25 17 -8 -13 -7 -13 11 0 10 8 22 20 26
25 4 6 8 6 8 2 0 -5 7 -1 16 7 8 9 20 14 25 11 5 -4 9 -1 9 4 0 6 7 11 15 11
8 0 15 4 15 10 0 5 7 7 15 4 8 -4 15 -1 15 5 0 6 9 11 19 11 11 0 26 7 34 15
8 8 17 12 19 9 3 -2 22 3 43 12 41 17 65 23 105 28 14 2 33 7 42 11 9 3 22 7
30 9 7 1 18 4 23 7 6 3 24 6 40 7 43 3 58 7 73 15 7 5 12 3 12 -4 0 -8 4 -8
13 -2 6 6 27 9 45 8 18 -1 35 2 37 5 3 4 16 6 30 5 14 -2 28 1 31 7 4 6 10 6
17 -1 6 -6 15 -11 20 -11z m-987 -1273 c4 -3 12 -3 18 0 18 12 150 10 158 -1
6 -8 8 -8 8 0 0 12 29 12 49 -1 9 -5 12 -4 7 3 -7 12 44 9 65 -4 8 -4 9 -3 5
4 -9 15 9 15 36 1 11 -6 18 -7 15 -2 -3 5 14 9 38 9 24 0 41 -4 38 -9 -3 -5 4
-4 15 2 14 7 23 8 27 1 4 -6 12 -7 18 -3 19 12 151 10 159 -1 6 -8 8 -8 8 0 0
12 29 12 49 -1 9 -5 12 -4 7 3 -7 12 44 9 65 -4 8 -4 9 -3 5 4 -9 15 9 15 36
1 11 -6 18 -7 15 -2 -3 5 14 9 38 9 24 0 41 -4 38 -9 -3 -5 4 -4 15 2 14 7 23
8 27 1 4 -6 12 -7 18 -3 18 11 107 12 100 1 -3 -6 4 -5 15 1 14 7 23 8 27 1 4
-6 12 -7 18 -3 19 12 151 10 159 -1 6 -8 8 -8 8 0 0 12 29 12 49 -1 9 -5 12
-4 7 3 -7 12 44 9 65 -4 8 -4 9 -3 5 4 -9 15 9 15 36 1 11 -6 18 -7 15 -2 -3
5 14 9 38 9 24 0 41 -4 38 -9 -3 -5 4 -4 15 2 14 8 23 8 27 1 4 -7 12 -7 18
-2 15 10 57 9 76 -2 9 -6 12 -5 7 2 -7 12 32 11 53 -3 9 -5 12 -4 8 1 -7 13
133 12 152 0 9 -6 12 -5 8 1 -7 12 74 10 93 -2 8 -5 11 -4 6 3 -7 12 32 11 53
-3 9 -5 12 -4 8 1 -7 12 143 12 161 1 6 -5 12 -4 12 0 0 16 38 12 52 -5 11
-13 11 -15 -2 -7 -12 6 -13 5 -3 -5 8 -9 9 -19 2 -32 -5 -10 -6 -18 -1 -18 5
0 9 -7 9 -15 0 -8 -5 -15 -10 -15 -5 0 -4 -6 2 -14 8 -10 9 -16 1 -21 -7 -4
-7 -12 0 -25 6 -10 7 -21 2 -24 -6 -4 -8 -61 -2 -61 1 0 3 -10 4 -22 2 -13 -2
-23 -8 -23 -6 0 -5 -4 2 -9 15 -9 15 -20 0 -38 -7 -9 -7 -13 0 -13 10 0 10 -7
2 -45 -1 -5 -1 -12 0 -15 7 -19 7 -40 -1 -40 -5 0 -8 -5 -7 -10 2 -8 -347 -11
-1132 -11 -624 0 -1149 0 -1166 0 l-31 1 1 239 c0 185 3 238 13 237 7 -1 15
-5 19 -9z"/>
<path d="M2982 6871 c-18 -8 -34 -23 -38 -33 -3 -10 -9 -16 -14 -13 -5 3 -7
-4 -5 -15 2 -11 -1 -20 -8 -20 -8 0 -8 -3 0 -11 6 -6 9 -17 6 -25 -11 -29 48
-94 80 -86 4 1 7 -2 7 -8 0 -10 39 -8 77 5 22 7 59 53 55 68 -1 4 2 7 6 7 11
0 7 39 -7 74 -13 34 -49 68 -62 60 -5 -3 -9 -1 -9 4 0 14 -54 10 -88 -7z"/>
<path d="M3514 6876 c-20 -12 -63 -56 -62 -65 0 -3 -1 -8 -2 -11 -6 -16 -5
-50 1 -50 5 0 6 -6 4 -12 -6 -15 32 -61 60 -73 27 -11 68 -13 80 -4 6 4 12 7
15 6 11 -2 38 20 54 45 18 28 29 91 14 82 -4 -3 -8 4 -8 16 0 12 -7 28 -15 36
-8 9 -15 13 -15 9 0 -3 -6 0 -14 7 -8 7 -13 15 -11 18 6 10 -82 6 -101 -4z"/>
<path d="M2505 6706 c-57 -41 -66 -126 -19 -173 25 -25 91 -46 100 -32 3 5 9
7 14 4 16 -10 59 26 74 59 16 37 20 86 6 86 -6 0 -10 7 -10 16 0 20 -39 56
-51 48 -5 -3 -9 0 -9 6 0 18 -75 8 -105 -14z"/>
<path d="M3980 6716 c0 -5 -3 -7 -6 -3 -7 7 -38 -24 -49 -49 -11 -28 -14 -94
-4 -94 5 0 9 -7 9 -15 0 -8 5 -15 10 -15 6 0 10 -6 10 -13 0 -8 7 -14 15 -15
8 -1 22 -3 30 -4 8 -1 15 -5 15 -9 0 -9 20 -6 39 5 11 7 12 6 5 -5 -5 -9 3 -7
21 5 40 26 55 42 48 50 -4 3 -2 6 4 6 17 0 22 52 10 92 -7 22 -23 43 -42 55
-32 19 -115 26 -115 9z"/>
<path d="M3289 6646 c-3 -3 -15 -7 -27 -9 -28 -4 -72 -42 -72 -62 0 -8 -4 -15
-9 -15 -5 0 -8 -17 -7 -37 1 -28 10 -48 35 -76 19 -20 36 -35 39 -32 3 2 13 0
23 -6 11 -5 19 -6 19 -1 0 5 11 8 24 7 25 -3 78 38 85 65 12 50 10 71 -9 102
-21 37 -61 64 -78 54 -6 -3 -12 -1 -14 5 -2 5 -6 8 -9 5z"/>
<path d="M2853 6408 c-67 -32 -89 -121 -42 -171 10 -11 19 -25 19 -29 0 -5 5
-6 10 -3 6 3 10 2 10 -3 0 -5 23 -9 50 -9 36 0 53 4 60 16 5 9 10 12 10 7 0
-6 9 0 21 13 26 27 35 119 13 128 -8 3 -14 9 -14 15 0 13 -20 31 -52 45 -22
10 -28 10 -28 0 0 -9 -2 -9 -8 -1 -5 9 -19 6 -49 -8z"/>
<path d="M3651 6410 c-18 -9 -40 -29 -50 -44 -23 -34 -21 -98 2 -124 9 -10 14
-22 10 -25 -3 -4 3 -7 15 -7 12 0 22 -4 22 -9 0 -5 25 -8 55 -8 30 1 53 3 51
5 -3 2 9 16 26 31 26 23 31 35 31 72 0 26 -8 57 -17 71 -17 26 -69 52 -80 41
-3 -4 -6 -2 -6 4 0 14 -24 12 -59 -7z"/>
<path d="M3530 3904 c-81 -14 -181 -49 -263 -91 -29 -15 -54 -27 -57 -28 -11
-2 -136 -83 -204 -132 -100 -72 -126 -95 -235 -204 -198 -197 -258 -374 -186
-544 13 -29 65 -84 106 -110 61 -40 113 -48 264 -45 512 10 710 -1 794 -44 18
-10 31 -24 31 -35 0 -22 -67 -92 -125 -130 -22 -14 -42 -28 -45 -31 -18 -21
-207 -96 -217 -87 -3 4 -13 1 -20 -5 -25 -20 -262 -16 -365 6 -12 3 -36 8 -53
10 -16 3 -59 10 -95 17 -174 31 -251 11 -242 -62 8 -66 44 -130 112 -199 45
-46 68 -61 130 -83 41 -14 100 -29 130 -33 55 -7 192 -7 240 0 97 13 129 19
155 27 17 4 64 18 105 30 41 12 82 24 90 25 8 2 16 8 18 14 2 5 8 8 12 5 5 -3
36 8 69 25 33 16 67 30 76 30 8 0 15 5 15 10 0 6 17 18 38 28 20 9 39 19 42
22 3 3 24 18 48 34 23 16 53 39 67 52 14 13 25 21 25 20 0 -2 21 18 48 46 26
27 59 61 73 76 14 15 26 31 27 35 0 4 10 27 22 51 27 56 31 79 29 146 -2 88
-4 100 -11 100 -5 0 -8 7 -8 16 0 36 -87 132 -142 157 -16 6 -28 16 -28 20 0
5 -4 6 -9 3 -5 -4 -22 -1 -38 5 -15 6 -37 13 -48 15 -11 2 -42 8 -69 13 -27 5
-139 7 -250 4 -284 -8 -536 -8 -571 -1 -16 4 -34 7 -40 7 -5 1 -18 8 -29 16
-18 13 -17 15 5 47 13 18 29 39 35 45 7 7 21 23 31 36 15 18 91 85 138 120 61
46 110 75 119 70 6 -3 7 -2 3 2 -4 5 7 16 25 25 18 10 62 32 98 51 36 19 68
36 73 37 4 1 33 9 64 18 65 19 133 20 165 3 20 -11 51 -45 54 -59 4 -21 26
-60 47 -82 48 -52 128 -28 156 45 9 24 8 156 -2 193 -21 78 -82 158 -157 207
-41 27 -67 35 -130 43 -25 3 -49 7 -55 8 -5 2 -44 -3 -85 -10z"/>
<path d="M4822 1688 c-15 -9 -34 -22 -42 -28 -69 -46 -92 -60 -99 -60 -5 0
-12 -7 -15 -16 -3 -8 -10 -13 -15 -10 -5 4 -11 3 -13 -1 -5 -12 -66 -53 -78
-53 -6 0 -8 -4 -5 -10 3 -5 0 -10 -7 -10 -7 0 -26 -12 -43 -26 -16 -14 -40
-34 -52 -45 -13 -10 -23 -17 -23 -15 0 3 -18 -13 -40 -35 -22 -22 -40 -38 -40
-35 0 3 -35 -31 -77 -76 -120 -124 -133 -138 -133 -142 0 -4 -45 -58 -72 -87
-10 -11 -18 -23 -18 -29 0 -5 -4 -10 -10 -10 -5 0 -10 -5 -10 -10 0 -11 -10
-24 -42 -61 -10 -10 -17 -20 -16 -21 1 -2 -10 -21 -24 -43 -45 -72 -78 -135
-70 -135 4 0 0 -5 -8 -10 -8 -5 -15 -13 -15 -17 -1 -4 -6 -18 -13 -30 -7 -13
-10 -23 -7 -23 3 0 -1 -13 -9 -29 -9 -16 -12 -31 -9 -35 4 -3 2 -6 -3 -6 -13
0 -20 -94 -13 -187 1 -13 6 -23 11 -23 5 0 6 -4 3 -10 -3 -5 -1 -10 6 -10 7 0
10 -3 7 -6 -8 -7 57 -74 71 -74 6 0 11 -4 11 -10 0 -5 12 -13 28 -16 15 -4 44
-15 64 -25 21 -11 41 -18 45 -17 5 1 18 -3 29 -10 12 -6 24 -9 27 -5 3 3 14 2
24 -2 27 -11 1525 -13 1541 -2 6 5 12 7 12 4 0 -3 17 -1 38 4 20 5 48 12 62
15 14 3 27 9 28 15 2 5 10 9 19 9 8 0 21 6 28 13 34 30 45 37 45 31 0 -14 110
107 111 121 5 53 3 95 -4 95 -5 0 -5 5 -2 10 4 6 1 17 -5 25 -6 8 -9 18 -6 24
3 5 3 11 -1 13 -5 1 -22 32 -40 68 -38 78 -62 117 -85 144 -10 10 -15 22 -13
26 3 5 -2 10 -10 14 -8 3 -15 12 -15 21 0 8 -3 15 -7 15 -5 0 -19 17 -33 38
-14 20 -30 41 -37 45 -7 4 -13 15 -13 22 0 8 -5 15 -12 15 -6 0 -9 3 -6 6 4 3
-7 18 -23 33 -16 16 -29 32 -29 37 0 5 -9 16 -20 24 -11 8 -20 18 -20 21 0 4
-15 23 -32 42 -88 92 -202 218 -210 229 -4 7 -8 10 -8 7 0 -4 -29 21 -64 55
-35 33 -82 77 -106 96 -23 19 -56 47 -73 62 -18 15 -38 28 -44 28 -7 0 -13 4
-13 9 0 5 -13 14 -30 21 -16 7 -30 16 -30 21 0 5 -8 9 -18 9 -10 0 -23 5 -29
11 -6 6 -19 12 -29 14 -11 2 -19 4 -19 5 0 2 -17 3 -38 4 -22 1 -49 -5 -65
-16z m140 -199 c26 -17 48 -35 48 -41 0 -5 4 -6 10 -3 5 3 15 -3 22 -15 7 -11
17 -20 23 -20 6 0 53 -40 104 -90 52 -49 98 -90 103 -90 4 0 8 -4 8 -8 0 -5
29 -38 65 -75 36 -37 65 -72 65 -79 0 -6 3 -9 6 -5 3 3 27 -20 52 -51 25 -31
49 -58 54 -60 4 -2 8 -8 8 -13 0 -5 14 -23 30 -39 17 -16 30 -32 30 -36 0 -8
61 -86 75 -96 5 -4 6 -8 2 -8 -8 0 7 -21 35 -47 9 -9 15 -20 12 -25 -3 -4 0
-8 5 -8 6 0 11 -5 11 -10 0 -12 41 -73 53 -78 4 -2 7 -9 7 -15 1 -7 11 -34 24
-62 24 -50 25 -100 4 -120 -7 -7 -9 -6 -5 1 9 15 -31 26 -40 12 -4 -7 -1 -8 7
-3 9 6 11 4 6 -4 -6 -9 -13 -8 -29 6 -11 10 -17 12 -13 6 4 -7 3 -13 -1 -13
-5 0 -15 6 -22 13 -10 8 -12 8 -7 0 5 -8 -1 -10 -21 -4 -16 3 -52 6 -81 5 -35
-2 -50 1 -45 8 4 7 1 8 -8 2 -21 -13 -79 -13 -79 0 0 8 -2 8 -8 0 -5 -8 -199
-11 -689 -10 -449 1 -683 -2 -684 -9 0 -5 -3 -4 -6 3 -4 10 -10 9 -26 -5 -11
-10 -17 -12 -13 -5 5 8 -1 12 -21 12 -45 1 -61 19 -58 70 1 25 9 62 18 83 9
20 16 38 16 40 -1 8 16 43 23 48 5 3 11 14 12 24 3 22 156 255 168 255 4 0 8
5 8 10 0 6 8 18 18 28 44 47 82 95 82 105 0 6 3 7 6 4 4 -4 19 9 34 28 15 19
30 32 34 28 3 -3 6 -2 6 3 0 5 11 22 25 38 14 16 25 27 25 23 0 -3 20 14 44
39 25 24 47 44 50 44 3 0 14 8 24 18 10 9 31 26 46 37 16 11 34 26 41 33 8 6
18 12 24 12 6 0 11 3 11 8 1 10 80 58 92 54 5 -1 7 2 3 8 -5 9 8 14 20 8 2 -2
10 5 17 14 13 17 65 48 82 48 5 0 31 -14 58 -31z"/>
<path d="M4820 1349 c0 -6 -4 -8 -9 -5 -10 6 -23 -18 -26 -47 -4 -43 62 -79
98 -52 23 17 31 66 14 89 -14 20 -77 32 -77 15z"/>
<path d="M4686 1086 c-19 -30 -7 -104 15 -90 5 3 9 1 9 -5 0 -13 52 -3 68 13
12 12 15 28 10 68 -3 36 -80 46 -102 14z"/>
<path d="M4360 932 c0 -7 -4 -11 -9 -8 -5 3 -12 -1 -15 -10 -25 -65 41 -119
94 -76 30 25 30 71 -1 92 -29 19 -69 20 -69 2z"/>
<path d="M4735 769 c-11 -4 -15 -8 -10 -8 6 -1 4 -5 -3 -9 -19 -12 -23 -52 -8
-73 7 -10 16 -16 19 -12 4 3 7 2 7 -4 0 -6 14 -10 32 -9 25 1 34 8 43 29 6 15
15 24 19 20 5 -5 3 2 -3 15 -6 12 -8 22 -4 22 13 0 -36 31 -55 34 -9 2 -26 0
-37 -5z"/>
<path d="M2052 1322 c-6 -2 -9 -9 -5 -15 4 -7 -1 -6 -10 2 -12 9 -17 10 -17 2
0 -7 -4 -10 -8 -7 -5 3 -15 -6 -22 -19 -7 -14 -17 -25 -21 -25 -5 0 -6 -6 -3
-14 3 -8 0 -17 -6 -21 -8 -5 -8 -11 1 -21 6 -8 8 -14 3 -14 -5 0 -9 -18 -9
-40 0 -22 3 -40 8 -40 4 0 7 -5 7 -11 0 -5 -4 -8 -9 -5 -12 8 -8 -27 4 -36 6
-5 6 -8 -1 -8 -11 0 -11 -46 0 -57 3 -3 1 -14 -5 -24 -6 -13 -6 -19 1 -19 5 0
10 -5 10 -11 0 -5 -3 -8 -7 -6 -5 3 -8 -15 -8 -39 0 -24 2 -44 5 -44 3 0 6 -9
6 -20 0 -11 -3 -20 -7 -20 -7 0 -3 -49 5 -57 3 -4 1 -12 -5 -20 -9 -9 -8 -13
0 -13 6 0 11 -8 11 -18 0 -10 9 -28 19 -39 11 -12 17 -24 13 -27 -3 -4 1 -4
11 0 9 3 17 2 17 -3 0 -5 10 -9 23 -8 12 1 25 -3 29 -9 5 -7 8 -6 8 3 0 11 3
11 17 0 11 -10 14 -10 9 -1 -4 6 -3 12 3 12 5 0 12 -6 14 -12 4 -10 6 -9 6 1
1 11 4 11 16 1 11 -9 15 -9 15 -1 0 7 5 9 13 4 16 -10 30 -11 42 -2 12 9 34 7
52 -4 6 -4 15 -2 19 4 4 8 9 7 15 -2 6 -9 9 -10 9 -2 0 12 24 12 36 0 4 -4 13
-2 21 4 10 9 13 8 13 -2 0 -11 2 -11 10 1 9 13 10 13 10 0 0 -12 2 -12 9 -1 6
9 10 10 16 2 5 -9 10 -9 21 0 11 9 14 9 14 -1 0 -10 3 -10 15 0 12 10 15 10
15 -1 0 -11 2 -11 9 0 8 12 12 12 25 2 9 -8 16 -9 16 -4 0 5 9 9 19 10 25 2
72 33 66 43 -3 5 0 10 5 12 14 4 31 78 19 78 -6 0 -9 6 -8 13 3 18 -12 48 -21
42 -5 -3 -12 4 -15 16 -5 14 -13 19 -26 16 -10 -3 -21 -1 -24 4 -3 4 -12 6
-20 2 -9 -3 -15 1 -15 8 0 11 -3 11 -10 -1 -9 -13 -10 -13 -10 0 0 9 -3 11 -8
5 -11 -15 -46 -19 -36 -4 5 8 3 9 -7 3 -20 -12 -38 -14 -45 -3 -3 5 -11 6 -17
2 -21 -13 -47 -13 -47 0 0 7 -3 8 -8 2 -10 -14 -65 -15 -74 -1 -5 7 -8 7 -8 1
0 -6 -11 -11 -25 -11 -14 0 -25 4 -25 9 0 4 -4 6 -8 3 -4 -2 -9 9 -10 25 -1
18 3 29 10 29 8 0 9 3 3 8 -15 11 -18 115 -2 106 9 -6 9 -4 1 7 -16 20 -16 82
-1 72 9 -5 9 -3 1 8 -16 21 -18 82 -2 73 10 -6 10 -4 0 9 -8 9 -11 21 -7 27 3
5 -1 13 -9 16 -9 3 -14 10 -11 14 6 10 -30 51 -38 43 -4 -3 -9 2 -13 11 -5 13
-9 14 -20 5 -8 -6 -14 -7 -14 -2 0 10 -16 13 -38 5z"/>
</g>
</svg>
